<svg width="80" height="80" viewBox="0 0 80 80" fill="none" xmlns="http://www.w3.org/2000/svg">
<circle cx="40" cy="40" r="40" fill="#3E5F90"/>
<path d="M59.9999 49.8402V55.8402C60.0021 56.3972 59.888 56.9485 59.6649 57.4589C59.4417 57.9692 59.1145 58.4274 58.704 58.8039C58.2936 59.1805 57.809 59.4672 57.2814 59.6456C56.7537 59.8241 56.1946 59.8903 55.6399 59.8402C49.4855 59.1715 43.5739 57.0685 38.3799 53.7002C33.5475 50.6295 29.4505 46.5325 26.3799 41.7002C22.9998 36.4826 20.8964 30.5422 20.2399 24.3602C20.1899 23.8071 20.2556 23.2497 20.4329 22.7234C20.6101 22.1972 20.895 21.7136 21.2694 21.3034C21.6438 20.8933 22.0995 20.5656 22.6074 20.3412C23.1154 20.1169 23.6645 20.0007 24.2199 20.0002H30.2199C31.1905 19.9906 32.1314 20.3344 32.8674 20.9673C33.6033 21.6002 34.084 22.4791 34.2199 23.4402C34.4731 25.3603 34.9428 27.2456 35.6199 29.0602C35.889 29.776 35.9472 30.554 35.7877 31.302C35.6282 32.0499 35.2576 32.7364 34.7199 33.2802L32.1799 35.8202C35.027 40.8273 39.1728 44.9731 44.1799 47.8202L46.7199 45.2802C47.2636 44.7425 47.9502 44.3719 48.6981 44.2124C49.446 44.0529 50.224 44.1111 50.9399 44.3802C52.7544 45.0573 54.6397 45.5269 56.5599 45.7802C57.5314 45.9173 58.4187 46.4066 59.0529 47.1552C59.6872 47.9038 60.0242 48.8593 59.9999 49.8402Z" stroke="#8F9EBB" stroke-width="2" stroke-linecap="round" stroke-linejoin="round"/>
</svg>
