<svg width="118" height="130" viewBox="0 0 118 130" fill="none" xmlns="http://www.w3.org/2000/svg">
<path d="M27.75 58.75V33.75C27.75 25.462 31.0424 17.5134 36.9029 11.6529C42.7634 5.7924 50.712 2.5 59 2.5C67.288 2.5 75.2366 5.7924 81.0971 11.6529C86.9576 17.5134 90.25 25.462 90.25 33.75V58.75M15.25 58.75H102.75C109.654 58.75 115.25 64.3464 115.25 71.25V115C115.25 121.904 109.654 127.5 102.75 127.5H15.25C8.34644 127.5 2.75 121.904 2.75 115V71.25C2.75 64.3464 8.34644 58.75 15.25 58.75Z" stroke="#1E1E1E" stroke-width="4" stroke-linecap="round" stroke-linejoin="round"/>
</svg>
