<svg width="92" height="92" viewBox="0 0 92 92" fill="none" xmlns="http://www.w3.org/2000/svg">
<path d="M91 43.5001C91.0172 50.0995 89.4753 56.6096 86.5 62.5001C82.9722 69.5589 77.5488 75.496 70.8372 79.6465C64.1257 83.7971 56.3912 85.9971 48.5 86.0001C41.9007 86.0174 35.3906 84.4755 29.5 81.5001L1 91.0001L10.5 62.5001C7.52466 56.6096 5.98279 50.0995 6 43.5001C6.00305 35.6089 8.20306 27.8744 12.3536 21.1629C16.5041 14.4514 22.4413 9.02798 29.5 5.50014C35.3906 2.5248 41.9007 0.982936 48.5 1.00014H51C61.4217 1.5751 71.2652 5.97395 78.6457 13.3544C86.0262 20.7349 90.425 30.5784 91 41.0001V43.5001Z" stroke="white" stroke-width="2" stroke-linecap="round" stroke-linejoin="round"/>
</svg>
