<svg width="129" height="129" viewBox="0 0 129 129" fill="none" xmlns="http://www.w3.org/2000/svg">
<path d="M96.25 7.74994C97.8915 6.10841 99.8403 4.80628 101.985 3.9179C104.13 3.02951 106.429 2.57227 108.75 2.57227C111.071 2.57227 113.37 3.02951 115.515 3.9179C117.66 4.80628 119.608 6.10841 121.25 7.74994C122.892 9.39146 124.194 11.3402 125.082 13.485C125.97 15.6297 126.428 17.9285 126.428 20.2499C126.428 22.5714 125.97 24.8701 125.082 27.0149C124.194 29.1596 122.892 31.1084 121.25 32.7499L36.875 117.125L2.5 126.5L11.875 92.1249L96.25 7.74994Z" stroke="#1E1E1E" stroke-width="4" stroke-linecap="round" stroke-linejoin="round"/>
</svg>
