<svg width="24" height="24" viewBox="0 0 24 24" fill="none" xmlns="http://www.w3.org/2000/svg">
<path d="M8 10C6.89543 10 6 9.10457 6 8C6 6.89543 6.89543 6 8 6C9.10457 6 10 6.89543 10 8C10 9.10457 9.10457 10 8 10Z" stroke="white" stroke-width="2"/>
<path d="M22 12.5001L20.2484 10.9675C19.3371 10.1702 17.9637 10.2159 17.1075 11.0721L12.8178 15.3618C12.1306 16.0491 11.0488 16.1428 10.2536 15.5839L9.9554 15.3744C8.8112 14.5702 7.2631 14.6634 6.2235 15.599L3 18.5001" stroke="white" stroke-width="2" stroke-linecap="round"/>
<path d="M2 12C2 16.714 2 19.0711 3.4645 20.5355C4.9289 22 7.286 22 12 22C16.7141 22 19.0711 22 20.5355 20.5355C22 19.0711 22 16.714 22 12C22 7.28595 22 4.92893 20.5355 3.46447C19.0711 2 16.7141 2 12 2C7.286 2 4.9289 2 3.4645 3.46447C2.4907 4.43821 2.1644 5.80655 2.0551 8" stroke="white" stroke-width="2" stroke-linecap="round"/>
</svg>
