<svg width="132" height="32" viewBox="0 0 132 32" fill="none" xmlns="http://www.w3.org/2000/svg">
<g clip-path="url(#clip0_122_320)">
<path d="M16 0L29.8564 8V24L16 32L2.14359 24V8L16 0Z" fill="#8F9EBB"/>
</g>
<path d="M24.0033 7.96519C21.7216 5.70787 17.8426 5.36486 14.4937 7.09363C13.8822 6.57176 13.1126 6.2848 12.297 6.2848C11.3962 6.2848 10.5489 6.63182 9.91216 7.26247C8.60723 8.55312 8.5988 10.6466 9.88349 11.9496C9.61367 12.6096 9.45481 13.2803 9.40826 13.9537C9.40219 13.9777 9.39444 14.0014 9.39309 14.0267C9.37218 14.3884 9.386 14.7498 9.42985 15.1098C9.43019 15.1115 9.43019 15.1132 9.43019 15.1145C9.4565 15.3297 9.49528 15.5443 9.54452 15.7582C9.54958 15.7802 9.55464 15.8022 9.56004 15.8242C9.60962 16.0295 9.66864 16.2337 9.73913 16.4369C9.7479 16.4626 9.75836 16.4883 9.76746 16.5139C9.84167 16.7202 9.92396 16.9254 10.0197 17.1292C10.2821 17.6872 10.3543 18.2824 10.2235 18.8056C10.21 18.8597 10.1914 18.9104 10.1756 18.9631C10.155 19.0322 10.1368 19.1029 10.1125 19.1697C10.0896 19.2334 10.0606 19.2931 10.0339 19.3545C10.0113 19.4072 9.99175 19.4616 9.96646 19.513C9.93239 19.5828 9.89158 19.6488 9.85246 19.7159C9.82919 19.7556 9.80929 19.7973 9.78467 19.8364C9.7388 19.9084 9.68584 19.9768 9.6339 20.0459C9.61063 20.0769 9.59039 20.1096 9.56611 20.1403C9.50641 20.2147 9.43929 20.2855 9.37218 20.3566C9.35059 20.3796 9.33204 20.4036 9.30944 20.4263C9.23726 20.4987 9.15834 20.5681 9.07807 20.6368C9.05581 20.6562 9.03658 20.6765 9.01331 20.6956C8.9182 20.7743 8.81567 20.8504 8.70943 20.9251C8.6983 20.9331 8.68885 20.9415 8.67738 20.9495C8.55866 21.0316 8.43286 21.1117 8.30031 21.1894C7.91278 21.4166 7.40551 21.7246 6.92321 22.0913L6.3866 22.4997C6.16062 22.6716 6.02065 22.9312 6.0021 23.2125C5.98355 23.4938 6.08845 23.7694 6.29014 23.9686L8.05376 25.7134C8.24027 25.8979 8.49188 26 8.75327 26C8.77756 26 8.80184 25.999 8.82612 25.9973C9.11315 25.9763 9.37622 25.8335 9.5479 25.6049L10.1031 24.8665C10.2629 24.6536 10.4221 24.421 10.5833 24.1688C10.6936 23.9959 10.8049 23.8158 10.9183 23.6206C10.9941 23.4901 11.0721 23.3666 11.152 23.2498C11.4619 22.7977 11.8063 22.4464 12.1955 22.1818C12.209 22.1727 12.2215 22.1614 12.2353 22.1524C12.3082 22.1043 12.3844 22.063 12.4603 22.0213C12.4903 22.0046 12.519 21.9849 12.5497 21.9692C12.6168 21.9348 12.6873 21.9068 12.7571 21.8768C12.7996 21.8584 12.8401 21.8371 12.8836 21.8207C12.9446 21.7974 13.009 21.7797 13.0721 21.7597C13.1278 21.742 13.1817 21.7213 13.2387 21.7059C13.7726 21.5625 14.2806 21.6475 14.6695 21.777C14.7592 21.807 14.8448 21.8384 14.9207 21.8711C14.9241 21.8724 14.9271 21.8734 14.9305 21.8748C15.0809 21.9388 15.2324 21.9956 15.3838 22.0486C15.4226 22.0623 15.4614 22.075 15.5005 22.0877C15.6415 22.1344 15.7828 22.1764 15.9248 22.2135C15.938 22.2168 15.9511 22.2211 15.9646 22.2245C16.5967 22.3846 17.2348 22.45 17.8695 22.4147C17.8884 22.4137 17.906 22.4073 17.9242 22.4036C19.7003 22.2902 21.4592 21.4273 23.0623 19.8417C26.5706 16.3701 27.002 10.9316 24.0033 7.96519ZM10.3891 7.73462C10.8987 7.2301 11.5766 6.95248 12.297 6.95248C13.0175 6.95248 13.6954 7.2301 14.205 7.73462C15.257 8.77535 15.257 10.4688 14.205 11.5095C14.1406 11.5732 14.0735 11.6329 14.0043 11.6887C13.9797 11.7087 13.9534 11.7257 13.9285 11.7444C13.8829 11.7784 13.8381 11.8135 13.7908 11.8445C13.7591 11.8655 13.7261 11.8832 13.6937 11.9026C13.6515 11.9279 13.6097 11.9539 13.5666 11.977C13.5301 11.996 13.4927 12.012 13.4556 12.0294C13.4148 12.0484 13.3743 12.0687 13.3328 12.0857C13.293 12.1021 13.2525 12.1154 13.2121 12.1298C13.1719 12.1441 13.1321 12.1592 13.0917 12.1715C13.0492 12.1845 13.0063 12.1945 12.9632 12.2052C12.9237 12.2152 12.8846 12.2256 12.8451 12.2336C12.7999 12.2429 12.7541 12.2492 12.7085 12.2563C12.6711 12.2619 12.6336 12.2683 12.5962 12.2723C12.5473 12.2776 12.4981 12.2803 12.4488 12.2829C12.4148 12.2849 12.3807 12.2873 12.3463 12.288C12.293 12.289 12.24 12.2873 12.1871 12.2849C12.1571 12.2836 12.1274 12.2829 12.0977 12.2806C12.04 12.2763 11.9824 12.2696 11.9247 12.2616C11.9004 12.2583 11.8761 12.2553 11.8522 12.2512C11.7894 12.2409 11.727 12.2279 11.665 12.2132C11.6471 12.2089 11.6292 12.2049 11.6114 12.2002C11.5436 12.1825 11.4761 12.1622 11.4097 12.1391C11.3989 12.1355 11.3877 12.1318 11.377 12.1278C11.3044 12.1018 11.2329 12.0727 11.1624 12.0404C11.1581 12.0384 11.1537 12.0364 11.1493 12.0344C10.9199 11.9272 10.7024 11.7864 10.5041 11.6116L10.4309 11.5469C10.4174 11.5338 10.4026 11.5228 10.3891 11.5095C9.33744 10.4688 9.33744 8.77535 10.3891 7.73462ZM9.00657 25.2065C8.95125 25.2803 8.86963 25.3246 8.77688 25.3313C8.68514 25.3383 8.59678 25.3063 8.53101 25.2409L6.76738 23.4961C6.70229 23.4317 6.66957 23.3463 6.67598 23.2552C6.68205 23.1644 6.72522 23.0837 6.79808 23.0283L7.33468 22.6199C7.78832 22.2745 8.27299 21.9805 8.64467 21.763C8.94754 21.5855 9.2204 21.3953 9.46392 21.1911L9.46425 21.1907C9.58567 21.089 9.70001 20.9835 9.80693 20.8747C9.81637 20.8651 9.82379 20.8547 9.83323 20.8454C9.9297 20.7453 10.0221 20.6432 10.1064 20.5371C10.1199 20.5204 10.1304 20.502 10.1435 20.485C10.2211 20.3849 10.2956 20.2831 10.3628 20.1777C10.3789 20.152 10.3918 20.124 10.4076 20.098C10.4673 19.9989 10.526 19.8994 10.5769 19.7956C10.5924 19.7643 10.6036 19.7309 10.6181 19.6989C10.6646 19.5978 10.7105 19.4963 10.7489 19.3906C10.7614 19.3555 10.7702 19.3182 10.782 19.2828C10.8164 19.1793 10.8511 19.0759 10.8785 18.9681C10.8791 18.9658 10.8791 18.9635 10.8798 18.9615C10.8798 18.9608 10.8801 18.9601 10.8805 18.9595C11.0491 18.2821 10.9631 17.552 10.6319 16.848C10.5935 16.7662 10.5641 16.6841 10.5294 16.602C10.2612 15.9657 10.1017 15.3191 10.066 14.6694L17.2186 21.7463C17.2172 21.7463 17.2156 21.7463 17.2142 21.7463C17.0543 21.737 16.8945 21.7199 16.7346 21.6969C16.7228 21.6953 16.711 21.6943 16.6992 21.6923C16.5474 21.6696 16.396 21.6389 16.2445 21.6038C16.226 21.5995 16.2074 21.5965 16.1885 21.5918C16.0422 21.5561 15.8961 21.5131 15.7504 21.466C15.7285 21.459 15.7066 21.4537 15.6847 21.4463C15.5191 21.3906 15.3538 21.3282 15.1892 21.2578C14.9494 21.1554 14.7086 21.082 14.4688 21.0326C14.4374 21.0262 14.406 21.0176 14.375 21.0122C14.3447 21.0069 14.3146 21.0045 14.2843 20.9999C14.2242 20.9909 14.1642 20.9812 14.1048 20.9759C14.0937 20.9749 14.0823 20.9752 14.0711 20.9742C13.9929 20.9678 13.915 20.9632 13.8374 20.9625C13.835 20.9625 13.8327 20.9628 13.8303 20.9628C13.7443 20.9625 13.659 20.9655 13.574 20.9722C13.5497 20.9742 13.5261 20.9785 13.5021 20.9812C13.4394 20.9879 13.377 20.9942 13.3153 21.0049C13.2451 21.0169 13.176 21.0332 13.1068 21.0506C13.0923 21.0543 13.0778 21.0563 13.0633 21.0603C13.062 21.0606 13.0603 21.0609 13.059 21.0613C12.9254 21.0973 12.7966 21.14 12.6707 21.1867C12.6613 21.1901 12.6508 21.1927 12.6414 21.1961C12.5163 21.2435 12.3959 21.2975 12.2782 21.3559C12.2677 21.3612 12.2562 21.3649 12.2461 21.3703C12.1345 21.4266 12.0276 21.49 11.922 21.5568C11.9068 21.5665 11.8903 21.5741 11.8748 21.5838C11.7658 21.6549 11.6606 21.733 11.5574 21.8154C11.5473 21.8234 11.5365 21.8297 11.5267 21.8381C11.0771 22.2048 10.6845 22.6836 10.3331 23.2872C10.0673 23.7444 9.81502 24.1304 9.56139 24.4678L9.00657 25.2065ZM18.1471 21.724C18.1441 21.721 18.1427 21.7169 18.1397 21.7139L10.101 13.7611C10.1 13.7601 10.0983 13.7595 10.0973 13.7585C10.1503 13.304 10.2542 12.8495 10.4235 12.3961C10.5833 12.5018 10.7513 12.5903 10.9237 12.666C10.9307 12.669 10.9375 12.6727 10.9446 12.6757C11.0194 12.708 11.0953 12.7367 11.1719 12.7638C11.1928 12.7711 11.2137 12.7785 11.235 12.7855C11.3044 12.8082 11.3743 12.8285 11.4451 12.8465C11.4744 12.8542 11.5038 12.8609 11.5331 12.8679C11.5989 12.8829 11.665 12.8969 11.7314 12.9079C11.7665 12.9139 11.8019 12.9183 11.8373 12.9229C11.9001 12.9316 11.9628 12.94 12.0262 12.945C12.0663 12.9483 12.1065 12.949 12.1466 12.9506C12.1969 12.953 12.2471 12.9576 12.2977 12.9576C12.3072 12.9576 12.3163 12.9563 12.3254 12.9563C12.3777 12.956 12.4299 12.9516 12.4822 12.949C12.5659 12.9446 12.6488 12.9373 12.7321 12.9266C12.7935 12.9189 12.8549 12.9116 12.9156 12.9006C12.9588 12.8926 13.0013 12.8819 13.0441 12.8722C13.1018 12.8595 13.1591 12.8465 13.2161 12.8308C13.259 12.8188 13.3015 12.8048 13.344 12.7911C13.3999 12.7731 13.4556 12.7544 13.5106 12.7334C13.5524 12.7174 13.5939 12.7004 13.635 12.6827C13.69 12.6593 13.7443 12.6343 13.7979 12.6079C13.8377 12.5886 13.8769 12.5686 13.916 12.5475C13.971 12.5179 14.0249 12.4855 14.0789 12.4525C14.1146 12.4304 14.1504 12.4091 14.1855 12.3857C14.2438 12.3467 14.3005 12.3043 14.3568 12.2613C14.3851 12.2396 14.4141 12.2195 14.4418 12.1969C14.5248 12.1291 14.6054 12.058 14.6829 11.9813C14.7619 11.9032 14.8354 11.8218 14.9049 11.7384C14.9292 11.709 14.9501 11.6783 14.9733 11.6486C15.0165 11.5929 15.0593 11.5375 15.0985 11.4801C15.1234 11.4431 15.1457 11.405 15.169 11.3673C15.2017 11.315 15.2344 11.2626 15.2637 11.2088C15.2863 11.1675 15.3066 11.1251 15.3271 11.0827C15.3524 11.031 15.3777 10.9793 15.4003 10.9266C15.4196 10.8818 15.4364 10.8365 15.4536 10.7911C15.4732 10.7394 15.4917 10.6876 15.5086 10.6353C15.5238 10.5879 15.5376 10.5402 15.5504 10.4921C15.5642 10.4407 15.5771 10.3893 15.5885 10.3376C15.5993 10.2879 15.6094 10.2382 15.6182 10.1881C15.627 10.1374 15.6341 10.0867 15.6405 10.036C15.6469 9.98426 15.653 9.93254 15.657 9.88082C15.6607 9.83143 15.6624 9.78238 15.6641 9.733C15.6658 9.67928 15.6678 9.62556 15.6671 9.57217C15.6664 9.52512 15.6631 9.47841 15.6604 9.43136C15.657 9.37563 15.6546 9.31991 15.6486 9.26419C15.6438 9.22148 15.6364 9.17876 15.63 9.13605C15.6212 9.07666 15.6135 9.01727 15.6017 8.95854C15.5953 8.92751 15.5862 8.89714 15.5791 8.86644C15.5251 8.63621 15.4462 8.41098 15.3427 8.19409C15.3278 8.16306 15.3147 8.13136 15.2988 8.10033C15.2701 8.04494 15.2374 7.99121 15.2054 7.93716C15.1821 7.89979 15.1612 7.86208 15.1376 7.82571C15.1056 7.77633 15.0705 7.72861 15.0357 7.68056C15.0152 7.65187 14.9969 7.62217 14.975 7.59414C18.023 6.09527 21.4895 6.42161 23.5264 8.437C26.2661 11.1474 25.8353 16.1539 22.5853 19.3692C21.1681 20.7713 19.6679 21.5588 18.1471 21.724Z" fill="black"/>
<path d="M10.948 9.62217C10.948 8.88608 11.5531 8.28747 12.2971 8.28747C12.4836 8.28747 12.6344 8.13831 12.6344 7.95379C12.6344 7.76927 12.4836 7.62012 12.2971 7.62012C11.1811 7.62012 10.2734 8.51804 10.2734 9.62217C10.2734 9.80669 10.4242 9.95584 10.6107 9.95584C10.7972 9.95584 10.948 9.80669 10.948 9.62217Z" fill="black"/>
<path d="M36.6165 12.6406V11.3182H44.4964V12.6406H41.3196V21.5H39.7884V12.6406H36.6165ZM45.9106 12.6406V11.3182H53.7906V12.6406H50.6137V21.5H49.0825V12.6406H45.9106ZM63.7261 14.6293H62.1749C62.1153 14.2978 62.0042 14.0062 61.8418 13.7543C61.6794 13.5024 61.4806 13.2886 61.2452 13.1129C61.0099 12.9373 60.7464 12.8047 60.4548 12.7152C60.1664 12.6257 59.8598 12.581 59.535 12.581C58.9484 12.581 58.423 12.7285 57.959 13.0234C57.4983 13.3184 57.1337 13.7509 56.8653 14.321C56.6001 14.8911 56.4675 15.5871 56.4675 16.4091C56.4675 17.2377 56.6001 17.937 56.8653 18.5071C57.1337 19.0772 57.5 19.508 57.964 19.7997C58.428 20.0914 58.95 20.2372 59.53 20.2372C59.8515 20.2372 60.1565 20.1941 60.4448 20.108C60.7365 20.0185 61 19.8875 61.2353 19.7152C61.4706 19.5429 61.6695 19.3324 61.8319 19.0838C61.9976 18.8319 62.112 18.5436 62.1749 18.2188L63.7261 18.2237C63.6432 18.7242 63.4825 19.1849 63.2438 19.6058C63.0085 20.0234 62.7052 20.3847 62.334 20.6896C61.9661 20.9912 61.5452 21.2249 61.0712 21.3906C60.5973 21.5563 60.0802 21.6392 59.5201 21.6392C58.6385 21.6392 57.853 21.4304 57.1636 21.0128C56.4742 20.5919 55.9306 19.9903 55.5329 19.2081C55.1385 18.4259 54.9413 17.4929 54.9413 16.4091C54.9413 15.322 55.1401 14.389 55.5379 13.6101C55.9356 12.8279 56.4791 12.228 57.1685 11.8104C57.8579 11.3894 58.6418 11.179 59.5201 11.179C60.0603 11.179 60.5641 11.2569 61.0315 11.4126C61.5021 11.5651 61.9247 11.7905 62.2992 12.0888C62.6737 12.3838 62.9836 12.745 63.2289 13.1726C63.4742 13.5968 63.6399 14.0824 63.7261 14.6293ZM74.5838 16.4091C74.5838 17.4962 74.3849 18.4309 73.9872 19.2131C73.5895 19.992 73.0442 20.5919 72.3515 21.0128C71.6621 21.4304 70.8783 21.6392 70 21.6392C69.1183 21.6392 68.3312 21.4304 67.6385 21.0128C66.9491 20.5919 66.4055 19.9903 66.0078 19.2081C65.61 18.4259 65.4112 17.4929 65.4112 16.4091C65.4112 15.322 65.61 14.389 66.0078 13.6101C66.4055 12.8279 66.9491 12.228 67.6385 11.8104C68.3312 11.3894 69.1183 11.179 70 11.179C70.8783 11.179 71.6621 11.3894 72.3515 11.8104C73.0442 12.228 73.5895 12.8279 73.9872 13.6101C74.3849 14.389 74.5838 15.322 74.5838 16.4091ZM73.0625 16.4091C73.0625 15.5805 72.9282 14.8828 72.6598 14.3161C72.3946 13.746 72.03 13.3151 71.566 13.0234C71.1053 12.7285 70.5833 12.581 70 12.581C69.4133 12.581 68.8896 12.7285 68.4289 13.0234C67.9682 13.3151 67.6037 13.746 67.3352 14.3161C67.07 14.8828 66.9375 15.5805 66.9375 16.4091C66.9375 17.2377 67.07 17.937 67.3352 18.5071C67.6037 19.0739 67.9682 19.5047 68.4289 19.7997C68.8896 20.0914 69.4133 20.2372 70 20.2372C70.5833 20.2372 71.1053 20.0914 71.566 19.7997C72.03 19.5047 72.3946 19.0739 72.6598 18.5071C72.9282 17.937 73.0625 17.2377 73.0625 16.4091ZM77.0283 21.5H75.3976L79.0617 11.3182H80.8365L84.5006 21.5H82.8699L79.9914 13.1676H79.9118L77.0283 21.5ZM77.3017 17.5128H82.5915V18.8054H77.3017V17.5128ZM94.1241 14.6293H92.573C92.5133 14.2978 92.4023 14.0062 92.2399 13.7543C92.0775 13.5024 91.8786 13.2886 91.6433 13.1129C91.408 12.9373 91.1445 12.8047 90.8528 12.7152C90.5645 12.6257 90.2579 12.581 89.9331 12.581C89.3464 12.581 88.8211 12.7285 88.3571 13.0234C87.8964 13.3184 87.5318 13.7509 87.2633 14.321C86.9982 14.8911 86.8656 15.5871 86.8656 16.4091C86.8656 17.2377 86.9982 17.937 87.2633 18.5071C87.5318 19.0772 87.898 19.508 88.362 19.7997C88.8261 20.0914 89.3481 20.2372 89.9281 20.2372C90.2496 20.2372 90.5545 20.1941 90.8429 20.108C91.1345 20.0185 91.398 19.8875 91.6333 19.7152C91.8687 19.5429 92.0675 19.3324 92.2299 19.0838C92.3957 18.8319 92.51 18.5436 92.573 18.2188L94.1241 18.2237C94.0413 18.7242 93.8805 19.1849 93.6419 19.6058C93.4065 20.0234 93.1033 20.3847 92.7321 20.6896C92.3642 20.9912 91.9432 21.2249 91.4693 21.3906C90.9953 21.5563 90.4783 21.6392 89.9181 21.6392C89.0365 21.6392 88.251 21.4304 87.5616 21.0128C86.8722 20.5919 86.3287 19.9903 85.9309 19.2081C85.5365 18.4259 85.3393 17.4929 85.3393 16.4091C85.3393 15.322 85.5382 14.389 85.9359 13.6101C86.3336 12.8279 86.8772 12.228 87.5666 11.8104C88.256 11.3894 89.0398 11.179 89.9181 11.179C90.4584 11.179 90.9622 11.2569 91.4295 11.4126C91.9002 11.5651 92.3227 11.7905 92.6973 12.0888C93.0718 12.3838 93.3817 12.745 93.627 13.1726C93.8722 13.5968 94.0379 14.0824 94.1241 14.6293ZM96.1374 21.5V11.3182H97.6736V15.7429H102.75V11.3182H104.291V21.5H102.75V17.0604H97.6736V21.5H96.1374ZM107.563 21.5945C107.291 21.5945 107.058 21.4983 106.862 21.3061C106.667 21.1106 106.569 20.8752 106.569 20.6001C106.569 20.3284 106.667 20.0964 106.862 19.9041C107.058 19.7086 107.291 19.6108 107.563 19.6108C107.835 19.6108 108.069 19.7086 108.264 19.9041C108.46 20.0964 108.557 20.3284 108.557 20.6001C108.557 20.7824 108.511 20.9498 108.418 21.1023C108.329 21.2514 108.209 21.3707 108.06 21.4602C107.911 21.5497 107.745 21.5945 107.563 21.5945ZM119.3 14.6293H117.748C117.689 14.2978 117.578 14.0062 117.415 13.7543C117.253 13.5024 117.054 13.2886 116.819 13.1129C116.583 12.9373 116.32 12.8047 116.028 12.7152C115.74 12.6257 115.433 12.581 115.108 12.581C114.522 12.581 113.996 12.7285 113.532 13.0234C113.072 13.3184 112.707 13.7509 112.439 14.321C112.174 14.8911 112.041 15.5871 112.041 16.4091C112.041 17.2377 112.174 17.937 112.439 18.5071C112.707 19.0772 113.073 19.508 113.537 19.7997C114.001 20.0914 114.523 20.2372 115.103 20.2372C115.425 20.2372 115.73 20.1941 116.018 20.108C116.31 20.0185 116.573 19.8875 116.809 19.7152C117.044 19.5429 117.243 19.3324 117.405 19.0838C117.571 18.8319 117.685 18.5436 117.748 18.2188L119.3 18.2237C119.217 18.7242 119.056 19.1849 118.817 19.6058C118.582 20.0234 118.279 20.3847 117.907 20.6896C117.54 20.9912 117.119 21.2249 116.645 21.3906C116.171 21.5563 115.654 21.6392 115.094 21.6392C114.212 21.6392 113.426 21.4304 112.737 21.0128C112.048 20.5919 111.504 19.9903 111.106 19.2081C110.712 18.4259 110.515 17.4929 110.515 16.4091C110.515 15.322 110.714 14.389 111.111 13.6101C111.509 12.8279 112.053 12.228 112.742 11.8104C113.431 11.3894 114.215 11.179 115.094 11.179C115.634 11.179 116.138 11.2569 116.605 11.4126C117.076 11.5651 117.498 11.7905 117.873 12.0888C118.247 12.3838 118.557 12.745 118.802 13.1726C119.048 13.5968 119.213 14.0824 119.3 14.6293ZM121.313 21.5V11.3182H122.849V15.7429H127.925V11.3182H129.466V21.5H127.925V17.0604H122.849V21.5H121.313Z" fill="black"/>
<defs>
<clipPath id="clip0_122_320">
<rect width="32" height="32" fill="white"/>
</clipPath>
</defs>
</svg>
