<svg width="116" height="86" viewBox="0 0 116 86" fill="none" xmlns="http://www.w3.org/2000/svg">
<path d="M12.3176 0C7.89937 0 4.31764 3.58172 4.31764 8L4.31764 25.7397C4.31764 25.7397 4.31764 25.7397 4.31764 25.7397C4.31764 25.7397 4.31764 44.6756 4.31764 48.119C4.31764 51.5625 0.000107743 54.1189 2.01629e-09 57.3333C-0.000107739 60.5478 4.31764 63.1042 4.31764 66.5476C4.31764 68.3261 4.31764 73.4562 4.31764 78.0016C4.31764 82.4199 7.89937 86 12.3176 86L108 86C112.418 86 116 82.4183 116 78L116 8C116 3.58172 112.418 0 108 0L12.3176 0Z" fill="#3E5F90"/>
</svg>
